# xmcd
#
# Track frame offsets:
#   150
#   16161
#   34494
#   51598
#   68414
#   84929
#   107045
#   122235
#   143953
#   158865
#
# Disc length: 2365 seconds
#
# Revision: 0
# Processed by: cddbd v1.5.1PL0 Copyright (c) Steve Scherf et al.
# Submitted via: uFREEDB 1.6.0
#
DISCID=84093b0a
DTITLE=Emmylou Harris - Luxury Liner
DYEAR=1900
DGENRE=Country
TTITLE0=You never can tell (C'est la vie)
TTITLE1=Hello Stranger
TTITLE2=I'll be your San Antanio Rose
TTITLE3=Luxury Liner
TTITLE4=Making believe
TTITLE5=Panch and Lefty
TTITLE6=She
TTITLE7=Tulsa Queen
TTITLE8=When I stopped dreaming
TTITLE9=Your supposed to be feeling good
EXTD=
EXTT0=
EXTT1=
EXTT2=
EXTT3=
EXTT4=
EXTT5=
EXTT6=
EXTT7=
EXTT8=
EXTT9=
PLAYORDER=
